gait_25_test.mot
version=1
nRows=18
nColumns=19
inDegrees=yes
endheader
time	ground_force_vx	ground_force_vy	ground_force_vz	ground_force_px	ground_force_py	ground_force_pz	1_ground_force_vx	1_ground_force_vy	1_ground_force_vz	1_ground_force_px	1_ground_force_py	1_ground_force_pz	ground_torque_x	ground_torque_y	ground_torque_z	1_ground_torque_x	1_ground_torque_y	1_ground_torque_z
      2.10600000	      0.00000000	      0.00000000	      0.00000000	      0.00000000	      0.00000000	      0.00000000	     27.72266742	    580.69949597	    -20.75939620	      0.24655261	      0.00000000	     -0.18995092	      0.00000000	      0.00000000	      0.00000000	      0.00000000	      1.80859852	      0.00000000
      2.10700000	      0.00000000	      0.00000000	      0.00000000	      0.00000000	      0.00000000	      0.00000000	     28.38683867	    582.88728704	    -20.86313956	      0.24674824	      0.00000000	     -0.18998341	      0.00000000	      0.00000000	      0.00000000	      0.00000000	      1.80022908	      0.00000000
      2.10800000	      0.00000000	      0.00000000	      0.00000000	      0.00000000	      0.00000000	      0.00000000	     29.05842124	    585.07212626	    -20.96250541	      0.24693854	      0.00000000	     -0.19001696	      0.00000000	      0.00000000	      0.00000000	      0.00000000	      1.79241251	      0.00000000
      2.10900000	      0.00000000	      0.00000000	      0.00000000	      0.00000000	      0.00000000	      0.00000000	     29.73727104	    587.25277705	    -21.05735955	      0.24712372	      0.00000000	     -0.19005155	      0.00000000	      0.00000000	      0.00000000	      0.00000000	      1.78516985	      0.00000000
      2.11000000	      0.00000000	      0.00000000	      0.00000000	      0.00000000	      0.00000000	      0.00000000	     30.42323490	    589.42798646	    -21.14757885	      0.24730396	      0.00000000	     -0.19008716	      0.00000000	      0.00000000	      0.00000000	      0.00000000	      1.77852027	      0.00000000
      2.11100000	      0.00000000	      0.00000000	      0.00000000	      0.00000000	      0.00000000	      0.00000000	     31.11615083	    591.59648666	    -21.23305156	      0.24747944	      0.00000000	     -0.19012378	      0.00000000	      0.00000000	      0.00000000	      0.00000000	      1.77248100	      0.00000000
      2.11200000	      0.00000000	      0.00000000	      0.00000000	      0.00000000	      0.00000000	      0.00000000	     31.81584833	    593.75699654	    -21.31367748	      0.24765037	      0.00000000	     -0.19016138	      0.00000000	      0.00000000	      0.00000000	      0.00000000	      1.76706727	      0.00000000
      2.11300000	      0.00000000	      0.00000000	      0.00000000	      0.00000000	      0.00000000	      0.00000000	     32.52214869	    595.90822336	    -21.38936813	      0.24781693	      0.00000000	     -0.19019995	      0.00000000	      0.00000000	      0.00000000	      0.00000000	      1.76229230	      0.00000000
      2.11400000	      0.00000000	      0.00000000	      0.00000000	      0.00000000	      0.00000000	      0.00000000	     33.23486521	    598.04886455	    -21.46004691	      0.24797931	      0.00000000	     -0.19023946	      0.00000000	      0.00000000	      0.00000000	      0.00000000	      1.75816722	      0.00000000
      2.11500000	      0.00000000	      0.00000000	      0.00000000	      0.00000000	      0.00000000	      0.00000000	     33.95380350	    600.17760938	    -21.52564914	      0.24813772	      0.00000000	     -0.19027989	      0.00000000	      0.00000000	      0.00000000	      0.00000000	      1.75470111	      0.00000000
      2.11600000	      0.00000000	      0.00000000	      0.00000000	      0.00000000	      0.00000000	      0.00000000	     34.67876181	    602.29314072	    -21.58612224	      0.24829233	      0.00000000	     -0.19032123	      0.00000000	      0.00000000	      0.00000000	      0.00000000	      1.75190096	      0.00000000
      2.11700000	      0.00000000	      0.00000000	      0.00000000	      0.00000000	      0.00000000	      0.00000000	     35.40953126	    604.39413672	    -21.64142575	      0.24844334	      0.00000000	     -0.19036345	      0.00000000	      0.00000000	      0.00000000	      0.00000000	      1.74977165	      0.00000000
      2.11800000	      0.00000000	      0.00000000	      0.00000000	      0.00000000	      0.00000000	      0.00000000	     36.14589625	    606.47927256	    -21.69153143	      0.24859095	      0.00000000	     -0.19040652	      0.00000000	      0.00000000	      0.00000000	      0.00000000	      1.74831597	      0.00000000
      2.11900000	      0.00000000	      0.00000000	      0.00000000	      0.00000000	      0.00000000	      0.00000000	     36.88763479	    608.54722225	    -21.73642322	      0.24873533	      0.00000000	     -0.19045043	      0.00000000	      0.00000000	      0.00000000	      0.00000000	      1.74753464	      0.00000000
      2.12000000	      0.00000000	      0.00000000	      0.00000000	      0.00000000	      0.00000000	      0.00000000	     37.63451899	    610.59666051	    -21.77609724	      0.24887668	      0.00000000	     -0.19049516	      0.00000000	      0.00000000	      0.00000000	      0.00000000	      1.74742629	      0.00000000
      2.12100000	      0.00000000	      0.00000000	      0.00000000	      0.00000000	      0.00000000	      0.00000000	     38.38631556	    612.62626478	    -21.81056173	      0.24901518	      0.00000000	     -0.19054068	      0.00000000	      0.00000000	      0.00000000	      0.00000000	      1.74798752	      0.00000000
      2.12200000	      0.00000000	      0.00000000	      0.00000000	      0.00000000	      0.00000000	      0.00000000	     39.14278635	    614.63471722	    -21.83983695	      0.24915101	      0.00000000	     -0.19058697	      0.00000000	      0.00000000	      0.00000000	      0.00000000	      1.74921290	      0.00000000
      2.12300000	      0.00000000	      0.00000000	      0.00000000	      0.00000000	      0.00000000	      0.00000000	     39.90368895	    616.62070680	    -21.86395496	      0.24928434	      0.00000000	     -0.19063400	      0.00000000	      0.00000000	      0.00000000	      0.00000000	      1.75109502	      0.00000000
